<mxfile host="app.diagrams.net" agent="Mozilla/5.0 (Windows NT 10.0; Win64; x64) AppleWebKit/537.36 (KHTML, like Gecko) Chrome/131.0.0.0 Safari/537.36" version="26.0.8">
  <diagram name="Page-1" id="TrgycSJS47Xfpw-sIoHR">
    <mxGraphModel dx="1730" dy="1572" grid="1" gridSize="10" guides="1" tooltips="1" connect="1" arrows="1" fold="1" page="1" pageScale="1" pageWidth="850" pageHeight="1100" math="0" shadow="0">
      <root>
        <mxCell id="0" />
        <mxCell id="1" parent="0" />
        <mxCell id="9jbiC7tSy9B6tF7seFyf-42" value="Google Cloud&amp;nbsp;&lt;div&gt;Platform&lt;/div&gt;" style="ellipse;shape=cloud;whiteSpace=wrap;html=1;spacingTop=0;spacingLeft=0;fontSize=29;fontFamily=Times New Roman;fillColor=#f5f5f5;fontColor=#333333;strokeColor=#666666;labelPosition=center;verticalLabelPosition=middle;align=center;verticalAlign=middle;spacingBottom=470;spacingRight=300;" parent="1" vertex="1">
          <mxGeometry x="-380" y="-50" width="990" height="720" as="geometry" />
        </mxCell>
        <mxCell id="9jbiC7tSy9B6tF7seFyf-6" value="&lt;p&gt;&lt;font&gt;Backend: Application Logic&lt;/font&gt;&lt;/p&gt;" style="rounded=0;whiteSpace=wrap;html=1;spacingTop=0;spacingBottom=200;fillColor=#dae8fc;strokeColor=#6c8ebf;fontFamily=Times New Roman;" parent="1" vertex="1">
          <mxGeometry y="120" width="300" height="320" as="geometry" />
        </mxCell>
        <mxCell id="9jbiC7tSy9B6tF7seFyf-1" value="&lt;strong&gt;Frontend&lt;/strong&gt; (User Interaction)" style="rounded=1;whiteSpace=wrap;html=1;fillColor=#d5e8d4;strokeColor=#82b366;fontFamily=Times New Roman;" parent="1" vertex="1">
          <mxGeometry x="60" width="120" height="60" as="geometry" />
        </mxCell>
        <mxCell id="9jbiC7tSy9B6tF7seFyf-4" value="Crop Recommendations" style="rounded=0;whiteSpace=wrap;html=1;fontFamily=Times New Roman;" parent="1" vertex="1">
          <mxGeometry x="10" y="230" width="120" height="60" as="geometry" />
        </mxCell>
        <mxCell id="9jbiC7tSy9B6tF7seFyf-7" value="Weather Alerts" style="rounded=0;whiteSpace=wrap;html=1;fontFamily=Times New Roman;" parent="1" vertex="1">
          <mxGeometry x="170" y="230" width="120" height="60" as="geometry" />
        </mxCell>
        <mxCell id="9jbiC7tSy9B6tF7seFyf-8" value="Price Prediction" style="rounded=0;whiteSpace=wrap;html=1;fontFamily=Times New Roman;" parent="1" vertex="1">
          <mxGeometry x="10" y="330" width="120" height="60" as="geometry" />
        </mxCell>
        <mxCell id="9jbiC7tSy9B6tF7seFyf-9" value="Data Storage and Retrieval" style="rounded=0;whiteSpace=wrap;html=1;fontFamily=Times New Roman;" parent="1" vertex="1">
          <mxGeometry x="170" y="330" width="120" height="60" as="geometry" />
        </mxCell>
        <mxCell id="9jbiC7tSy9B6tF7seFyf-12" value="" style="edgeStyle=orthogonalEdgeStyle;rounded=0;orthogonalLoop=1;jettySize=auto;html=1;entryX=-0.003;entryY=0.528;entryDx=0;entryDy=0;entryPerimeter=0;exitX=0.894;exitY=0.494;exitDx=0;exitDy=0;exitPerimeter=0;" parent="1" source="9jbiC7tSy9B6tF7seFyf-11" target="9jbiC7tSy9B6tF7seFyf-6" edge="1">
          <mxGeometry relative="1" as="geometry" />
        </mxCell>
        <mxCell id="9jbiC7tSy9B6tF7seFyf-11" value="IoT Sensors" style="ellipse;shape=cloud;whiteSpace=wrap;html=1;fontFamily=Times New Roman;" parent="1" vertex="1">
          <mxGeometry x="-220" y="240" width="120" height="80" as="geometry" />
        </mxCell>
        <mxCell id="9jbiC7tSy9B6tF7seFyf-17" value="AI/ML Models" style="shape=parallelogram;perimeter=parallelogramPerimeter;whiteSpace=wrap;html=1;fixedSize=1;fillColor=#fff2cc;strokeColor=#d6b656;fontFamily=Times New Roman;" parent="1" vertex="1">
          <mxGeometry x="100" y="510" width="120" height="60" as="geometry" />
        </mxCell>
        <mxCell id="9jbiC7tSy9B6tF7seFyf-19" value="Database: BigQuery" style="shape=cylinder3;whiteSpace=wrap;html=1;boundedLbl=1;backgroundOutline=1;size=15;fontFamily=Times New Roman;fillColor=#d0cee2;strokeColor=#56517e;" parent="1" vertex="1">
          <mxGeometry x="-170" y="460" width="110" height="110" as="geometry" />
        </mxCell>
        <mxCell id="9jbiC7tSy9B6tF7seFyf-23" value="Notification System (Twilio/Firebase)" style="rounded=0;whiteSpace=wrap;html=1;fontFamily=Times New Roman;" parent="1" vertex="1">
          <mxGeometry x="360" y="460" width="120" height="60" as="geometry" />
        </mxCell>
        <mxCell id="9jbiC7tSy9B6tF7seFyf-24" value="" style="endArrow=classic;html=1;rounded=0;entryX=0;entryY=0.25;entryDx=0;entryDy=0;exitX=1;exitY=1;exitDx=0;exitDy=0;" parent="1" source="9jbiC7tSy9B6tF7seFyf-6" target="9jbiC7tSy9B6tF7seFyf-23" edge="1">
          <mxGeometry width="50" height="50" relative="1" as="geometry">
            <mxPoint x="270" y="480" as="sourcePoint" />
            <mxPoint x="320" y="430" as="targetPoint" />
          </mxGeometry>
        </mxCell>
        <mxCell id="9jbiC7tSy9B6tF7seFyf-26" value="" style="endArrow=classic;html=1;rounded=0;exitX=0.5;exitY=1;exitDx=0;exitDy=0;entryX=0.44;entryY=0.007;entryDx=0;entryDy=0;entryPerimeter=0;" parent="1" source="9jbiC7tSy9B6tF7seFyf-1" target="9jbiC7tSy9B6tF7seFyf-6" edge="1">
          <mxGeometry width="50" height="50" relative="1" as="geometry">
            <mxPoint x="120" y="150" as="sourcePoint" />
            <mxPoint x="170" y="100" as="targetPoint" />
          </mxGeometry>
        </mxCell>
        <mxCell id="9jbiC7tSy9B6tF7seFyf-27" value="User Input" style="text;html=1;align=center;verticalAlign=middle;whiteSpace=wrap;rounded=0;fontFamily=Times New Roman;" parent="1" vertex="1">
          <mxGeometry x="130" y="70" width="60" height="30" as="geometry" />
        </mxCell>
        <mxCell id="9jbiC7tSy9B6tF7seFyf-28" value="Field data collection" style="text;html=1;align=center;verticalAlign=middle;whiteSpace=wrap;rounded=0;fontFamily=Times New Roman;" parent="1" vertex="1">
          <mxGeometry x="-90" y="245" width="60" height="30" as="geometry" />
        </mxCell>
        <mxCell id="9jbiC7tSy9B6tF7seFyf-30" value="External API&#39;s" style="rounded=0;whiteSpace=wrap;html=1;labelPosition=center;verticalLabelPosition=middle;align=center;verticalAlign=middle;spacingTop=0;spacingBottom=150;fillColor=#fff2cc;strokeColor=#d6b656;fontFamily=Times New Roman;" parent="1" vertex="1">
          <mxGeometry x="390" y="170" width="190" height="180" as="geometry" />
        </mxCell>
        <mxCell id="9jbiC7tSy9B6tF7seFyf-13" value="Google Cloud API" style="rounded=1;whiteSpace=wrap;html=1;fontFamily=Times New Roman;" parent="1" vertex="1">
          <mxGeometry x="425" y="200" width="120" height="60" as="geometry" />
        </mxCell>
        <mxCell id="9jbiC7tSy9B6tF7seFyf-14" value="Gemini API" style="rounded=1;whiteSpace=wrap;html=1;fontFamily=Times New Roman;" parent="1" vertex="1">
          <mxGeometry x="425" y="280" width="120" height="60" as="geometry" />
        </mxCell>
        <mxCell id="9jbiC7tSy9B6tF7seFyf-33" value="External API calls" style="text;html=1;align=center;verticalAlign=middle;whiteSpace=wrap;rounded=0;fontFamily=Times New Roman;" parent="1" vertex="1">
          <mxGeometry x="310" y="230" width="60" height="30" as="geometry" />
        </mxCell>
        <mxCell id="9jbiC7tSy9B6tF7seFyf-34" value="Data analysis and predictions" style="text;html=1;align=center;verticalAlign=middle;whiteSpace=wrap;rounded=0;fontFamily=Times New Roman;" parent="1" vertex="1">
          <mxGeometry x="185" y="460" width="90" height="30" as="geometry" />
        </mxCell>
        <mxCell id="9jbiC7tSy9B6tF7seFyf-35" value="" style="endArrow=classic;html=1;rounded=0;entryX=0.5;entryY=0;entryDx=0;entryDy=0;exitX=0.526;exitY=1.001;exitDx=0;exitDy=0;exitPerimeter=0;" parent="1" source="9jbiC7tSy9B6tF7seFyf-6" target="9jbiC7tSy9B6tF7seFyf-17" edge="1">
          <mxGeometry width="50" height="50" relative="1" as="geometry">
            <mxPoint x="110" y="430" as="sourcePoint" />
            <mxPoint x="160" y="380" as="targetPoint" />
          </mxGeometry>
        </mxCell>
        <mxCell id="9jbiC7tSy9B6tF7seFyf-36" value="Data storage and retrieval" style="text;html=1;align=center;verticalAlign=middle;whiteSpace=wrap;rounded=0;fontFamily=Times New Roman;" parent="1" vertex="1">
          <mxGeometry x="-100" y="420" width="80" height="40" as="geometry" />
        </mxCell>
        <mxCell id="9jbiC7tSy9B6tF7seFyf-37" value="Sending notifications" style="text;html=1;align=center;verticalAlign=middle;whiteSpace=wrap;rounded=0;fontFamily=Times New Roman;" parent="1" vertex="1">
          <mxGeometry x="320" y="420" width="60" height="30" as="geometry" />
        </mxCell>
        <mxCell id="9jbiC7tSy9B6tF7seFyf-38" value="" style="endArrow=classic;html=1;rounded=0;entryX=0.401;entryY=0.996;entryDx=0;entryDy=0;entryPerimeter=0;" parent="1" edge="1">
          <mxGeometry width="50" height="50" relative="1" as="geometry">
            <mxPoint x="140" y="511.28" as="sourcePoint" />
            <mxPoint x="140.30000000000018" y="440" as="targetPoint" />
          </mxGeometry>
        </mxCell>
        <mxCell id="9jbiC7tSy9B6tF7seFyf-39" value="Insights returned to the backend" style="text;html=1;align=center;verticalAlign=middle;whiteSpace=wrap;rounded=0;fontFamily=Times New Roman;" parent="1" vertex="1">
          <mxGeometry x="40" y="460" width="90" height="40" as="geometry" />
        </mxCell>
        <mxCell id="9jbiC7tSy9B6tF7seFyf-40" value="Data fetched for training and inference" style="text;html=1;align=center;verticalAlign=middle;whiteSpace=wrap;rounded=0;fontFamily=Times New Roman;" parent="1" vertex="1">
          <mxGeometry x="-20" y="540" width="90" height="45" as="geometry" />
        </mxCell>
        <mxCell id="9jbiC7tSy9B6tF7seFyf-43" value="" style="endArrow=classic;startArrow=classic;html=1;rounded=0;exitX=1;exitY=0;exitDx=0;exitDy=15;exitPerimeter=0;" parent="1" source="9jbiC7tSy9B6tF7seFyf-19" edge="1">
          <mxGeometry width="50" height="50" relative="1" as="geometry">
            <mxPoint x="-50" y="490" as="sourcePoint" />
            <mxPoint y="440" as="targetPoint" />
          </mxGeometry>
        </mxCell>
        <mxCell id="9jbiC7tSy9B6tF7seFyf-44" value="" style="endArrow=classic;startArrow=classic;html=1;rounded=0;exitX=1.003;exitY=0.458;exitDx=0;exitDy=0;exitPerimeter=0;entryX=0.114;entryY=0.383;entryDx=0;entryDy=0;entryPerimeter=0;" parent="1" source="9jbiC7tSy9B6tF7seFyf-19" target="9jbiC7tSy9B6tF7seFyf-17" edge="1">
          <mxGeometry width="50" height="50" relative="1" as="geometry">
            <mxPoint x="30" y="490" as="sourcePoint" />
            <mxPoint x="80" y="440" as="targetPoint" />
          </mxGeometry>
        </mxCell>
        <mxCell id="9jbiC7tSy9B6tF7seFyf-46" value="" style="endArrow=classic;startArrow=classic;html=1;rounded=0;exitX=0;exitY=0.5;exitDx=0;exitDy=0;entryX=0.994;entryY=0.442;entryDx=0;entryDy=0;entryPerimeter=0;" parent="1" source="9jbiC7tSy9B6tF7seFyf-30" target="9jbiC7tSy9B6tF7seFyf-6" edge="1">
          <mxGeometry width="50" height="50" relative="1" as="geometry">
            <mxPoint x="270" y="320" as="sourcePoint" />
            <mxPoint x="320" y="270" as="targetPoint" />
          </mxGeometry>
        </mxCell>
      </root>
    </mxGraphModel>
  </diagram>
</mxfile>
